# xmcd CD database file
#
# Track frame offsets:
#	150
#	40711
#	68837
#	122458
#	146832
#	207845
#	243739
#	293505
#	316463
#
# Disc length: 4490 seconds
#
# Revision: 0
# Processed by: cddbd v1.4PL0 Copyright (c) Steve Scherf et al.
# Submitted via: CDex 1.50
#
DISCID=83118809
DTITLE=Stefano Battaglia Trio - The Book Of Jazz volume Two
DYEAR=2001
DGENRE=Jazz
TTITLE0=Rosetta
TTITLE1=Lazy Bird
TTITLE2=The opener
TTITLE3=Mabel
TTITLE4=Unquity road /unity village
TTITLE5=Quasimodo
TTITLE6=Tabarka
TTITLE7=Up jumped spring
TTITLE8=Smooch
EXTD=YEAR: 2001
EXTT0=
EXTT1=
EXTT2=
EXTT3=
EXTT4=
EXTT5=
EXTT6=
EXTT7=
EXTT8=
PLAYORDER=
